<svg width="120" height="120" viewBox="0 0 120 120" fill="none" xmlns="http://www.w3.org/2000/svg">
<path d="M60 90V105" stroke="#FFA400" stroke-width="3" stroke-linecap="round" stroke-linejoin="round"/>
<path d="M39.375 73.125C43.5171 73.125 46.875 69.7671 46.875 65.625C46.875 61.4829 43.5171 58.125 39.375 58.125C35.2329 58.125 31.875 61.4829 31.875 65.625C31.875 69.7671 35.2329 73.125 39.375 73.125Z" fill="white"/>
<path d="M80.625 73.125C84.7671 73.125 88.125 69.7671 88.125 65.625C88.125 61.4829 84.7671 58.125 80.625 58.125C76.4829 58.125 73.125 61.4829 73.125 65.625C73.125 69.7671 76.4829 73.125 80.625 73.125Z" fill="white"/>
<path d="M67.5 82.5L60 90L52.5 82.5" stroke="#FFA400" stroke-width="3" stroke-linecap="round" stroke-linejoin="round"/>
<path d="M15 63.7501V24.047C15.0012 23.3034 15.2235 22.5769 15.6386 21.96C16.0537 21.343 16.6428 20.8634 17.3311 20.582C18.0194 20.3007 18.7758 20.2303 19.5042 20.3799C20.2326 20.5294 20.9001 20.8921 21.4219 21.422L31.6875 31.6876C39.8887 25.6548 49.8191 22.4323 60 22.5001C70.1809 22.4323 80.1113 25.6548 88.3125 31.6876L98.5781 21.422C99.0999 20.8921 99.7674 20.5294 100.496 20.3799C101.224 20.2303 101.981 20.3007 102.669 20.582C103.357 20.8634 103.946 21.343 104.361 21.96C104.776 22.5769 104.999 23.3034 105 24.047V63.7501C105 86.5313 84.8438 105 60 105C35.1562 105 15 86.5313 15 63.7501Z" stroke="#DC602E" stroke-width="3" stroke-linecap="round" stroke-linejoin="round"/>
<path d="M50.625 23.3906V41.25" stroke="#FFA400" stroke-width="3" stroke-linecap="round" stroke-linejoin="round"/>
<path d="M69.375 23.3906V41.25" stroke="#FFA400" stroke-width="3" stroke-linecap="round" stroke-linejoin="round"/>
</svg>
