<svg width="187" height="33" viewBox="0 0 187 33" fill="none" xmlns="http://www.w3.org/2000/svg">
<path d="M0.12 12.8C0.12 10.6027 0.610667 8.64 1.592 6.912C2.59467 5.16267 3.94933 3.808 5.656 2.848C7.384 1.86667 9.31467 1.376 11.448 1.376C13.944 1.376 16.1307 2.016 18.008 3.296C19.8853 4.576 21.1973 6.34667 21.944 8.608H16.792C16.28 7.54133 15.5547 6.74133 14.616 6.208C13.6987 5.67467 12.632 5.408 11.416 5.408C10.1147 5.408 8.952 5.71733 7.928 6.336C6.92533 6.93333 6.136 7.78667 5.56 8.896C5.00533 10.0053 4.728 11.3067 4.728 12.8C4.728 14.272 5.00533 15.5733 5.56 16.704C6.136 17.8133 6.92533 18.6773 7.928 19.296C8.952 19.8933 10.1147 20.192 11.416 20.192C12.632 20.192 13.6987 19.9253 14.616 19.392C15.5547 18.8373 16.28 18.0267 16.792 16.96H21.944C21.1973 19.2427 19.8853 21.024 18.008 22.304C16.152 23.5627 13.9653 24.192 11.448 24.192C9.31467 24.192 7.384 23.712 5.656 22.752C3.94933 21.7707 2.59467 20.416 1.592 18.688C0.610667 16.96 0.12 14.9973 0.12 12.8ZM24.6185 15.072C24.6185 13.28 24.9705 11.6907 25.6745 10.304C26.3998 8.91733 27.3705 7.85067 28.5865 7.104C29.8238 6.35733 31.1998 5.984 32.7145 5.984C34.0372 5.984 35.1892 6.25067 36.1705 6.784C37.1732 7.31733 37.9732 7.98933 38.5705 8.8V6.272H43.0825V24H38.5705V21.408C37.9945 22.24 37.1945 22.9333 36.1705 23.488C35.1678 24.0213 34.0052 24.288 32.6825 24.288C31.1892 24.288 29.8238 23.904 28.5865 23.136C27.3705 22.368 26.3998 21.2907 25.6745 19.904C24.9705 18.496 24.6185 16.8853 24.6185 15.072ZM38.5705 15.136C38.5705 14.048 38.3572 13.12 37.9305 12.352C37.5038 11.5627 36.9278 10.9653 36.2025 10.56C35.4772 10.1333 34.6985 9.92 33.8665 9.92C33.0345 9.92 32.2665 10.1227 31.5625 10.528C30.8585 10.9333 30.2825 11.5307 29.8345 12.32C29.4078 13.088 29.1945 14.0053 29.1945 15.072C29.1945 16.1387 29.4078 17.0773 29.8345 17.888C30.2825 18.6773 30.8585 19.2853 31.5625 19.712C32.2878 20.1387 33.0558 20.352 33.8665 20.352C34.6985 20.352 35.4772 20.1493 36.2025 19.744C36.9278 19.3173 37.5038 18.72 37.9305 17.952C38.3572 17.1627 38.5705 16.224 38.5705 15.136ZM52.674 9.952V18.528C52.674 19.1253 52.8127 19.5627 53.09 19.84C53.3887 20.096 53.8793 20.224 54.562 20.224H56.642V24H53.826C50.05 24 48.162 22.1653 48.162 18.496V9.952H46.05V6.272H48.162V1.888H52.674V6.272H56.642V9.952H52.674Z" fill="#FFA400"/>
<path d="M58.7763 12.8C58.7763 10.6027 59.2669 8.64 60.2483 6.912C61.2509 5.16267 62.6056 3.808 64.3123 2.848C66.0403 1.86667 67.9709 1.376 70.1043 1.376C72.6003 1.376 74.7869 2.016 76.6643 3.296C78.5416 4.576 79.8536 6.34667 80.6003 8.608H75.4483C74.9363 7.54133 74.2109 6.74133 73.2723 6.208C72.3549 5.67467 71.2883 5.408 70.0723 5.408C68.7709 5.408 67.6083 5.71733 66.5843 6.336C65.5816 6.93333 64.7923 7.78667 64.2163 8.896C63.6616 10.0053 63.3843 11.3067 63.3843 12.8C63.3843 14.272 63.6616 15.5733 64.2163 16.704C64.7923 17.8133 65.5816 18.6773 66.5843 19.296C67.6083 19.8933 68.7709 20.192 70.0723 20.192C71.2883 20.192 72.3549 19.9253 73.2723 19.392C74.2109 18.8373 74.9363 18.0267 75.4483 16.96H80.6003C79.8536 19.2427 78.5416 21.024 76.6643 22.304C74.8083 23.5627 72.6216 24.192 70.1043 24.192C67.9709 24.192 66.0403 23.712 64.3123 22.752C62.6056 21.7707 61.2509 20.416 60.2483 18.688C59.2669 16.96 58.7763 14.9973 58.7763 12.8ZM94.4108 6.016C95.7548 6.016 96.9494 6.31467 97.9948 6.912C99.0401 7.488 99.8508 8.352 100.427 9.504C101.024 10.6347 101.323 12 101.323 13.6V24H96.8428V14.208C96.8428 12.8 96.4908 11.7227 95.7868 10.976C95.0828 10.208 94.1228 9.824 92.9068 9.824C91.6694 9.824 90.6881 10.208 89.9628 10.976C89.2588 11.7227 88.9068 12.8 88.9068 14.208V24H84.4268V0.32H88.9068V8.48C89.4828 7.712 90.2508 7.11467 91.2108 6.688C92.1708 6.24 93.2374 6.016 94.4108 6.016ZM104.431 15.072C104.431 13.28 104.783 11.6907 105.487 10.304C106.212 8.91733 107.183 7.85067 108.399 7.104C109.636 6.35733 111.012 5.984 112.527 5.984C113.85 5.984 115.002 6.25067 115.983 6.784C116.986 7.31733 117.786 7.98933 118.383 8.8V6.272H122.895V24H118.383V21.408C117.807 22.24 117.007 22.9333 115.983 23.488C114.98 24.0213 113.818 24.288 112.495 24.288C111.002 24.288 109.636 23.904 108.399 23.136C107.183 22.368 106.212 21.2907 105.487 19.904C104.783 18.496 104.431 16.8853 104.431 15.072ZM118.383 15.136C118.383 14.048 118.17 13.12 117.743 12.352C117.316 11.5627 116.74 10.9653 116.015 10.56C115.29 10.1333 114.511 9.92 113.679 9.92C112.847 9.92 112.079 10.1227 111.375 10.528C110.671 10.9333 110.095 11.5307 109.647 12.32C109.22 13.088 109.007 14.0053 109.007 15.072C109.007 16.1387 109.22 17.0773 109.647 17.888C110.095 18.6773 110.671 19.2853 111.375 19.712C112.1 20.1387 112.868 20.352 113.679 20.352C114.511 20.352 115.29 20.1493 116.015 19.744C116.74 19.3173 117.316 18.72 117.743 17.952C118.17 17.1627 118.383 16.224 118.383 15.136ZM137.095 6.016C139.207 6.016 140.913 6.688 142.215 8.032C143.516 9.35467 144.167 11.2107 144.167 13.6V24H139.687V14.208C139.687 12.8 139.335 11.7227 138.631 10.976C137.927 10.208 136.967 9.824 135.751 9.824C134.513 9.824 133.532 10.208 132.807 10.976C132.103 11.7227 131.751 12.8 131.751 14.208V24H127.271V6.272H131.751V8.48C132.348 7.712 133.105 7.11467 134.023 6.688C134.961 6.24 135.985 6.016 137.095 6.016ZM155.371 5.984C156.693 5.984 157.856 6.25067 158.859 6.784C159.861 7.296 160.651 7.968 161.227 8.8V6.272H165.739V24.128C165.739 25.7707 165.408 27.232 164.747 28.512C164.085 29.8133 163.093 30.8373 161.771 31.584C160.448 32.352 158.848 32.736 156.971 32.736C154.453 32.736 152.384 32.1493 150.763 30.976C149.163 29.8027 148.256 28.2027 148.043 26.176H152.491C152.725 26.9867 153.227 27.6267 153.995 28.096C154.784 28.5867 155.733 28.832 156.843 28.832C158.144 28.832 159.2 28.4373 160.011 27.648C160.821 26.88 161.227 25.7067 161.227 24.128V21.376C160.651 22.208 159.851 22.9013 158.827 23.456C157.824 24.0107 156.672 24.288 155.371 24.288C153.877 24.288 152.512 23.904 151.275 23.136C150.037 22.368 149.056 21.2907 148.331 19.904C147.627 18.496 147.275 16.8853 147.275 15.072C147.275 13.28 147.627 11.6907 148.331 10.304C149.056 8.91733 150.027 7.85067 151.243 7.104C152.48 6.35733 153.856 5.984 155.371 5.984ZM161.227 15.136C161.227 14.048 161.013 13.12 160.587 12.352C160.16 11.5627 159.584 10.9653 158.859 10.56C158.133 10.1333 157.355 9.92 156.523 9.92C155.691 9.92 154.923 10.1227 154.219 10.528C153.515 10.9333 152.939 11.5307 152.491 12.32C152.064 13.088 151.851 14.0053 151.851 15.072C151.851 16.1387 152.064 17.0773 152.491 17.888C152.939 18.6773 153.515 19.2853 154.219 19.712C154.944 20.1387 155.712 20.352 156.523 20.352C157.355 20.352 158.133 20.1493 158.859 19.744C159.584 19.3173 160.16 18.72 160.587 17.952C161.013 17.1627 161.227 16.224 161.227 15.136ZM186.594 14.752C186.594 15.392 186.552 15.968 186.466 16.48H173.506C173.613 17.76 174.061 18.7627 174.85 19.488C175.64 20.2133 176.61 20.576 177.762 20.576C179.426 20.576 180.61 19.8613 181.314 18.432H186.146C185.634 20.1387 184.653 21.5467 183.202 22.656C181.752 23.744 179.97 24.288 177.858 24.288C176.152 24.288 174.616 23.9147 173.25 23.168C171.906 22.4 170.85 21.3227 170.082 19.936C169.336 18.5493 168.962 16.9493 168.962 15.136C168.962 13.3013 169.336 11.6907 170.082 10.304C170.829 8.91733 171.874 7.85067 173.218 7.104C174.562 6.35733 176.109 5.984 177.858 5.984C179.544 5.984 181.048 6.34667 182.37 7.072C183.714 7.79733 184.749 8.832 185.474 10.176C186.221 11.4987 186.594 13.024 186.594 14.752ZM181.954 13.472C181.933 12.32 181.517 11.4027 180.706 10.72C179.896 10.016 178.904 9.664 177.73 9.664C176.621 9.664 175.682 10.0053 174.914 10.688C174.168 11.3493 173.709 12.2773 173.538 13.472H181.954Z" fill="white"/>
</svg>
